<?xml version="1.0" encoding="UTF-8" standalone="no"?>
<svg width="32px" height="32px" viewBox="0 0 32 32" version="1.1" xmlns="http://www.w3.org/2000/svg" xmlns:xlink="http://www.w3.org/1999/xlink">
    <!-- Generator: sketchtool 3.7.2 (28276) - http://www.bohemiancoding.com/sketch -->
    <title>arrow/1</title>
    <desc>Created with sketchtool.</desc>
    <defs></defs>
    <g id="Page-1" stroke="none" stroke-width="1" fill="none" fill-rule="evenodd">
        <g id="arrow/1" fill="#2A2630">
            <g id="Rectangle-348">
                <path d="M7.35533906,23.1421356 L13.1421356,23.1421356 C13.6944204,23.1421356 14.1421356,23.5898509 14.1421356,24.1421356 C14.1421356,24.6944204 13.6944204,25.1421356 13.1421356,25.1421356 L5.14213562,25.1421356 C4.58985087,25.1421356 4.14213562,24.6944204 4.14213562,24.1421356 L4.14213562,16.1421356 C4.14213562,15.5898509 4.58985087,15.1421356 5.14213562,15.1421356 C5.69442037,15.1421356 6.14213562,15.5898509 6.14213562,16.1421356 L6.14213562,21.5269119 L21.817472,5.8515756 C22.2078097,5.46123784 22.8434944,5.45871811 23.2340187,5.8492424 C23.6272657,6.24248936 23.6234984,6.87397628 23.2316855,7.26578916 L7.35533906,23.1421356 Z" transform="translate(14.142136, 15.142136) rotate(-315.000000) translate(-14.142136, -15.142136) "></path>
            </g>
        </g>
    </g>
</svg>