<?xml version="1.0" encoding="UTF-8" standalone="no"?>
<svg width="32px" height="32px" viewBox="0 0 32 32" version="1.1" xmlns="http://www.w3.org/2000/svg" xmlns:xlink="http://www.w3.org/1999/xlink">
    <!-- Generator: sketchtool 3.7.2 (28276) - http://www.bohemiancoding.com/sketch -->
    <title>arrow/2</title>
    <desc>Created with sketchtool.</desc>
    <defs></defs>
    <g id="Page-1" stroke="none" stroke-width="1" fill="none" fill-rule="evenodd">
        <g id="arrow/2" fill="#2A2630">
            <g id="Rectangle-348">
                <path d="M9.85786438,21.8994949 L15.2426407,21.8994949 C15.7949254,21.8994949 16.2426407,22.3472102 16.2426407,22.8994949 C16.2426407,23.4517797 15.7949254,23.8994949 15.2426407,23.8994949 L7.24264069,23.8994949 C6.69035594,23.8994949 6.24264069,23.4517797 6.24264069,22.8994949 L6.24264069,14.8994949 C6.24264069,14.3472102 6.69035594,13.8994949 7.24264069,13.8994949 C7.79492544,13.8994949 8.24264069,14.3472102 8.24264069,14.8994949 L8.24264069,20.6862915 L24.0184821,4.9104501 C24.4088198,4.52011235 25.0445046,4.51759262 25.4350288,4.90811691 C25.8282758,5.30136386 25.8245085,5.93285079 25.4326956,6.32466366 L9.85786438,21.8994949 Z" transform="translate(16.142136, 14.000000) rotate(-225.000000) translate(-16.142136, -14.000000) "></path>
            </g>
        </g>
    </g>
</svg>