<?xml version="1.0" encoding="UTF-8" standalone="no"?>
<svg width="32px" height="32px" viewBox="0 0 32 32" version="1.1" xmlns="http://www.w3.org/2000/svg" xmlns:xlink="http://www.w3.org/1999/xlink">
    <!-- Generator: sketchtool 3.7.2 (28276) - http://www.bohemiancoding.com/sketch -->
    <title>arrow/4</title>
    <desc>Created with sketchtool.</desc>
    <defs></defs>
    <g id="Page-1" stroke="none" stroke-width="1" fill="none" fill-rule="evenodd">
        <g id="arrow/4" fill="#2A2630">
            <g id="Rectangle-348">
                <path d="M9.50609665,25.991378 L15.1923882,25.991378 C15.7446729,25.991378 16.1923882,26.4390933 16.1923882,26.991378 C16.1923882,27.5436628 15.7446729,27.991378 15.1923882,27.991378 L7.19238816,27.991378 C6.64010341,27.991378 6.19238816,27.5436628 6.19238816,26.991378 L6.19238816,18.991378 C6.19238816,18.4390933 6.64010341,17.991378 7.19238816,17.991378 C7.74467291,17.991378 8.19238816,18.4390933 8.19238816,18.991378 L8.19238816,24.4766594 L23.917977,8.75107054 C24.3083148,8.36073278 24.9439995,8.35821305 25.3345238,8.74873734 C25.7277707,9.1419843 25.7240035,9.77347122 25.3321906,10.1652841 L9.50609665,25.991378 Z" transform="translate(16.142136, 18.142136) rotate(-45.000000) translate(-16.142136, -18.142136) "></path>
            </g>
        </g>
    </g>
</svg>